<svg version="1.2" xmlns="http://www.w3.org/2000/svg" viewBox="0 0 40 40" width="40" height="40">
	<title>logo-svg</title>
	<style>
		.s0 { fill: #000000 } 
	</style>
	<path id="Layer" fill-rule="evenodd" class="s0" d="m25.6 11.7c-1.7-1.1-3.6-1.7-5.6-1.7v-10c4 0 7.8 1.2 11.1 3.4 3.3 2.2 5.9 5.3 7.4 8.9 1.5 3.7 1.9 7.7 1.1 11.6-0.8 3.9-2.7 7.4-5.5 10.2-2.8 2.8-6.3 4.7-10.2 5.5-3.9 0.8-7.9 0.4-11.6-1.1-3.6-1.5-6.7-4.1-8.9-7.4-2.2-3.3-3.4-7.1-3.4-11.1h10c0 2 0.6 3.9 1.7 5.6 1.1 1.6 2.6 2.9 4.5 3.6 1.8 0.8 3.8 1 5.8 0.6 1.9-0.4 3.7-1.3 5.1-2.7 1.4-1.4 2.3-3.2 2.7-5.1 0.4-2 0.2-4-0.6-5.8-0.7-1.9-2-3.4-3.6-4.5z"/>
	<path id="Layer" fill-rule="evenodd" class="s0" d="m10 0c0 1.3-0.3 2.6-0.8 3.8-0.5 1.2-1.2 2.3-2.1 3.3-1 0.9-2.1 1.6-3.3 2.1-1.2 0.5-2.5 0.8-3.8 0.8v10c2.6 0 5.2-0.5 7.7-1.5 2.4-1 4.6-2.5 6.4-4.4 1.9-1.8 3.4-4 4.4-6.4 1-2.5 1.5-5.1 1.5-7.7z"/>
</svg>