<svg width="1000" height="1000" viewBox="0 0 1000 1000" fill="none" xmlns="http://www.w3.org/2000/svg">
<g clip-path="url(#clip0_62_2)">
<path fill-rule="evenodd" clip-rule="evenodd" d="M638.893 292.132C597.78 264.662 549.445 250 500 250V0C598.89 0 695.56 29.3245 777.785 84.2652C860.01 139.206 924.095 217.295 961.94 308.658C999.783 400.02 1009.68 500.555 990.392 597.545C971.1 694.535 923.48 783.628 853.553 853.553C783.628 923.48 694.535 971.1 597.545 990.392C500.555 1009.68 400.02 999.783 308.658 961.94C217.295 924.095 139.206 860.01 84.2652 777.785C29.3245 695.56 0 598.89 0 500H250C250 549.445 264.662 597.78 292.132 638.893C319.602 680.005 358.648 712.048 404.33 730.97C450.01 749.893 500.277 754.843 548.772 745.195C597.267 735.55 641.813 711.74 676.778 676.778C711.74 641.813 735.55 597.267 745.195 548.772C754.843 500.277 749.893 450.01 730.97 404.33C712.048 358.648 680.005 319.602 638.893 292.132Z" fill="black"/>
<path fill-rule="evenodd" clip-rule="evenodd" d="M250 0.000108281C250 32.8306 243.534 65.3396 230.97 95.6708C218.406 126.002 199.991 153.562 176.777 176.777C153.562 199.992 126.002 218.406 95.6709 230.97C65.3394 243.534 32.8304 250 1.09277e-05 250L0 500C65.6609 500 130.679 487.068 191.342 461.94C252.005 436.813 307.125 399.983 353.552 353.553C399.982 307.125 436.812 252.005 461.94 191.342C487.067 130.679 500 65.6608 500 0L250 0.000108281Z" fill="black"/>
</g>
<defs>
<clipPath id="clip0_62_2">
<rect width="1000" height="1000" fill="white"/>
</clipPath>
</defs>
</svg>
